<svg xmlns="http://www.w3.org/2000/svg" viewBox="0 0 1041.89 313.48"><defs><style>.a{font-size:183.92px;font-family:Monoton-Regular, Monoton;}.b,.c,.e,.f{fill:none;}.b{stroke:#c1272d;}.b,.c,.d,.e,.f{stroke-miterlimit:10;}.b,.d,.e{stroke-width:3px;}.c,.d,.e{stroke:#000;}.c{stroke-width:4px;}.d{fill:#c1272d;}.f{stroke:#8c6239;stroke-width:2px;}.g{fill:#8c6239;}.h{fill:#1a1a1a;}</style></defs><title>logo</title><text class="a" transform="translate(0 239.66)"><tspan xml:space="preserve">Ma     l</tspan><tspan class="b" x="529.3" y="0">man</tspan></text><circle class="c" cx="371.35" cy="52.53" r="27"/><ellipse cx="371.85" cy="154.53" rx="16.5" ry="62"/><path class="d" d="M419.72,370.36l-13-26.36-26.8.85-15.46,25.77c-6.5,1.11-10.48,2.59-10.48,4.21,0,3.41,17.42,6.17,38.91,6.17s38.92-2.76,38.92-6.17C431.83,373.07,427.18,371.49,419.72,370.36Z" transform="translate(-21.65 -342.47)"/><ellipse cx="372" cy="573" rx="16" ry="5" transform="translate(-328 311.5) rotate(-63.81)"/><ellipse class="e" cx="416" cy="573" rx="5" ry="16" transform="translate(-304.98 119.51) rotate(-45)"/><path class="f" d="M378.29,466.35a126.16,126.16,0,0,0-4.92,24.1l-2.12-.6a10.58,10.58,0,0,0-13,7.3l-2,7a10.57,10.57,0,0,0,7.29,13l9.53,2.69a10.59,10.59,0,0,0,13-7.3l1.95-6.95a10.57,10.57,0,0,0-4.74-11.9,125,125,0,0,0,9.11-23.1c5.48-18.47,6.75-34.38,2.84-35.54" transform="translate(-21.65 -342.47)"/><rect class="g" x="359.34" y="493.09" width="25.68" height="23.46" rx="8.74" transform="translate(129.14 -424.46) rotate(15.73)"/><path class="g" d="M414.82,395.81a10,10,0,0,0-.29,3.53c.18,1.89,3.06,2,3,0l-.07-2a1.52,1.52,0,0,0-1.9-1.45,2.56,2.56,0,0,0-1.7,1.39c-.41.84,0,2-.44,2.72H416l-.88-1.86a1.51,1.51,0,0,0-2.36-.3l-1.52,2,2.56,1.06a12.88,12.88,0,0,0-1.39-5,1.51,1.51,0,0,0-2.59,0,44.44,44.44,0,0,1-2.51,5.63l.9-.69-.31.12,1.15.16c.3.2-.26-.93-.26-.93-.73-1.75-3.64-1-2.89.8.57,1.35,1.31,3.71,3.28,2.67.92-.49,1.17-1.52,1.56-2.42l1.67-3.82h-2.59a9,9,0,0,1,1,3.45c.09,1.13,1.68,2.18,2.56,1.06l1.53-2-2.36-.3.88,1.86a1.51,1.51,0,0,0,2.59,0c.09-.17.95-2.91.35-2.73l-1.9-1.45.07,2h3a7.39,7.39,0,0,1,.18-2.73c.47-1.87-2.42-2.67-2.89-.8Z" transform="translate(-21.65 -342.47)"/><path class="h" d="M412.64,379.81c-3.77.2-9.56.36-12.46,3.06s-2.49,9.76-3,13.52l2.8-.76c-1-1.7.1-3.86-.72-5.7a5.94,5.94,0,0,0-2.39-2.55,9.65,9.65,0,0,0-9.4-.2c-3.38,2.1-4,6.38-4.52,9.93-.93,5.94-2.1,11.67-5.55,16.71-1.1,1.6,1.5,3.1,2.59,1.52,3.44-5,4.78-10.7,5.73-16.64a30.73,30.73,0,0,1,.89-5.07c1.13-3.31,5.33-6.57,8.75-3.66,2,1.69.71,5,2,7.17a1.52,1.52,0,0,0,2.8-.75c.38-3,.32-10.13,3.2-11.94,2.37-1.49,6.57-1.5,9.22-1.64,1.92-.1,1.93-3.1,0-3Z" transform="translate(-21.65 -342.47)"/><path class="h" d="M373.76,383.26a1.5,1.5,0,0,0,0-3,1.5,1.5,0,0,0,0,3Z" transform="translate(-21.65 -342.47)"/><path class="h" d="M375.38,383.26a1.5,1.5,0,0,0,0-3,1.5,1.5,0,0,0,0,3Z" transform="translate(-21.65 -342.47)"/><path class="h" d="M377.72,383.62a1.5,1.5,0,0,0,0-3,1.5,1.5,0,0,0,0,3Z" transform="translate(-21.65 -342.47)"/><path class="h" d="M373.94,383.08a1.5,1.5,0,0,0,0-3,1.5,1.5,0,0,0,0,3Z" transform="translate(-21.65 -342.47)"/><path class="h" d="M373.58,382.9a1.5,1.5,0,0,0,0-3,1.5,1.5,0,0,0,0,3Z" transform="translate(-21.65 -342.47)"/><path class="h" d="M373.4,384.16a1.5,1.5,0,0,0,0-3,1.5,1.5,0,0,0,0,3Z" transform="translate(-21.65 -342.47)"/><path class="h" d="M372.86,384.34a1.5,1.5,0,0,0,0-3,1.5,1.5,0,0,0,0,3Z" transform="translate(-21.65 -342.47)"/><path class="h" d="M372.68,384.88a1.5,1.5,0,0,0,0-3,1.5,1.5,0,0,0,0,3Z" transform="translate(-21.65 -342.47)"/><path class="h" d="M372.32,385.06a1.5,1.5,0,0,0,0-3,1.5,1.5,0,0,0,0,3Z" transform="translate(-21.65 -342.47)"/><path class="h" d="M372,385.78a1.5,1.5,0,0,0,0-3,1.5,1.5,0,0,0,0,3Z" transform="translate(-21.65 -342.47)"/><path class="h" d="M371.78,386.32a1.5,1.5,0,0,0,0-3,1.5,1.5,0,0,0,0,3Z" transform="translate(-21.65 -342.47)"/><path class="h" d="M371.42,387.22a1.5,1.5,0,0,0,0-3,1.5,1.5,0,0,0,0,3Z" transform="translate(-21.65 -342.47)"/><path class="h" d="M369.92,386.08v.18a1.5,1.5,0,0,0,3,0v-.18a1.5,1.5,0,0,0-3,0Z" transform="translate(-21.65 -342.47)"/><path class="h" d="M371.24,388.3a1.5,1.5,0,0,0,0-3,1.5,1.5,0,0,0,0,3Z" transform="translate(-21.65 -342.47)"/><path class="h" d="M370,385.87l-.54.9a1.5,1.5,0,0,0,2.59,1.51l.54-.9a1.5,1.5,0,1,0-2.59-1.51Z" transform="translate(-21.65 -342.47)"/><path class="h" d="M369.24,387.31l-.18.36a1.53,1.53,0,0,0,.54,2.05,1.51,1.51,0,0,0,2-.53l.18-.36a1.55,1.55,0,0,0-.53-2.06,1.53,1.53,0,0,0-2.06.54Z" transform="translate(-21.65 -342.47)"/><path class="h" d="M371.24,387.76a1.5,1.5,0,0,0,0-3,1.5,1.5,0,0,0,0,3Z" transform="translate(-21.65 -342.47)"/><path class="h" d="M369.38,386.8V387a1.5,1.5,0,0,0,3,0v-.18a1.5,1.5,0,0,0-3,0Z" transform="translate(-21.65 -342.47)"/><path class="h" d="M373.4,383.62a1.5,1.5,0,0,0,0-3,1.5,1.5,0,0,0,0,3Z" transform="translate(-21.65 -342.47)"/><path class="h" d="M376.82,383.08a1.5,1.5,0,0,0,0-3,1.5,1.5,0,0,0,0,3Z" transform="translate(-21.65 -342.47)"/><path class="h" d="M378,381.57c-2.74.88-4.05,1.49-5,4.2-.62,1.86,2.2,2.56,2.89.8l1.11-2.84c.61-1.57-2-2.68-2.74-1.15l-2.92,6,2.74.36v-2.44l-2.95-.4-.92,2.91,2.8.75.26-2a1.51,1.51,0,0,0-2.74-1.16l-2.11,2.33,2.21.89.25-2.31-2.8-.76.08,1.73c.07,1.63,2.56,2.12,2.94.4a32.21,32.21,0,0,1,1.31-4.4c.6-1.6-1.94-2.63-2.74-1.16l-1.25,2.29,2.59,1.52a36.52,36.52,0,0,1,3.33-5.66l-2.8-.76c-.56,4.6-1.46,8.58-4.55,12.21l2.5,1.46.57-2-2.74.36.66.86c.71.92,2.44,1,2.74-.36a7.52,7.52,0,0,0-.26-4.62,1.51,1.51,0,0,0-2.95.4,27.43,27.43,0,0,0,.91,8.51l2.9-.8-.92-2.48a1.5,1.5,0,0,0-2.89.8l.26,1a1.51,1.51,0,0,0,3-.4l0-1.1a1.51,1.51,0,0,0-2.8-.75,3.58,3.58,0,0,0-.09,2.62l1.45-1.9-.33,0,1.44,1.1-.06-.24-2.89.8.46,1.62c.24,1.86,3,2,3,0l0-3.1-3,.39a11.93,11.93,0,0,1,.25,3.52c0,1.93,2.94,1.93,3,0l.12-4-2.94.4a74,74,0,0,1,.83,8,1.51,1.51,0,0,0,2.95.4,68,68,0,0,0,2.27-12.59h-3a50.28,50.28,0,0,1-.76,5.88h2.89l-1-5.17c-.33-1.76-2.82-1.18-3,.4-.14,1.83-.19,3.59-.15,5.42a1.5,1.5,0,0,0,3,0,10.62,10.62,0,0,0-.19-3c-.24-1.85-3-2-3,0a24.58,24.58,0,0,1-1.06,7.13l2.75-.36a7.64,7.64,0,0,1-1.06-3.09l-2.89.8.35.87c.58,1.42,3.09,1.45,3-.4l-.3-3.94a1.5,1.5,0,0,0-3,0l-.36,3.06,2.95-.39a16.81,16.81,0,0,1,.72-10.58l-2.89-.79a85.86,85.86,0,0,0-.8,13.88c0,1.39,2.12,2.17,2.79.75a39.75,39.75,0,0,0,2.53-6.78l-2.74.36a92,92,0,0,1,4.31,8.31c.76,1.67,3,.38,2.74-1.16l-.06-.38a1.47,1.47,0,0,0-1.05-1.05l-.45-.09a1.55,1.55,0,0,0-1.7.69c-1.43,2.94-.8,6.49-.32,9.62l2.9-.8c-.57-2.7-1.24-5.35-2.05-8a1.5,1.5,0,0,0-2.89.79,14.76,14.76,0,0,0,1,3.76c.71,1.76,3.6,1,2.89-.79a14.16,14.16,0,0,0-2.21-3.82c-.85-1.06-2.54-.13-2.56,1.06a5.62,5.62,0,0,0,.43,2.75c.5,1.5,3.14,1.38,2.94-.4a4,4,0,0,0-1.09-2.64c-1-1.27-2.77.15-2.51,1.46a13.63,13.63,0,0,0,1.88,4.79l2.59-1.52a31.17,31.17,0,0,1-3.82-8.13c-.62-1.81-3.44-1.08-2.9.8a17,17,0,0,0,7.54,10l.76-2.79-1.57-1.14a1.5,1.5,0,0,0-2.59,1.51,28.24,28.24,0,0,0,4.67,6.41,1.52,1.52,0,0,0,2.36-.31,20.08,20.08,0,0,0,1.6-4.86l-2.9-.8-.23,1.53H380l-1.28-3.51a1.51,1.51,0,0,0-2.5-.66,7.46,7.46,0,0,0-1.54,1.68l2.74.36a18.28,18.28,0,0,1,0-6.43h-2.89l.53,3.13c.3,1.78,2.81,1.17,2.95-.4a104,104,0,0,0,.38-10.88,1.51,1.51,0,0,0-2.95-.4L374,398h2.89a44.43,44.43,0,0,1-1.37-6.6c-.17-1.3-2.07-2.27-2.8-.76a21.56,21.56,0,0,0-1.7,4.84l2.95.4.45-3.28-2.95-.4.24,5a1.51,1.51,0,0,0,2.95.4l3.68-8.89-2.95-.4.47,3.93c.23,1.87,3,2,3,0l.15-6.65a1.51,1.51,0,0,0-2.95-.4l-1.63,5.44h2.89l-.73-2.93a1.52,1.52,0,0,0-2.74-.36l-1.22,2,2.74,1.16,1-2.71-2.95-.4.13,2.29a1.51,1.51,0,0,0,2.79.76,7.3,7.3,0,0,1,1.9-2.4L375.71,387a66.73,66.73,0,0,1-1.58,8.06c-.41,1.61,1.92,2.69,2.74,1.16a55.25,55.25,0,0,0,3.3-7.37l-2.95-.4a82.78,82.78,0,0,1-.56,9.31c-.21,1.79,2.4,1.86,2.95.39a23.77,23.77,0,0,0,1.37-5.93c.18-1.67-2.65-2.06-3-.4a77.82,77.82,0,0,1-2.27,9.27l2.94.4a16.91,16.91,0,0,1,.92-4.4l-2.95-.4.63,5.49c.15,1.31,2.08,2.26,2.79.76a38.36,38.36,0,0,0,2.7-7.5l-2.89-.8a46.46,46.46,0,0,1-2.17,8.94l2.89.8.59-3.34-2.9-.8-1.23,7.15a1.5,1.5,0,0,0,2.89.79,6.73,6.73,0,0,0,.67-2.79c.18-1.74-2.47-2-2.95-.4l-.82,2.69,2.89.8.5-2.79h-2.89l.59,2.16a1.52,1.52,0,0,0,2.74.36,9,9,0,0,0,1.65-4l-2.94-.4.34,2.92a1.5,1.5,0,0,0,2.94.39,42.23,42.23,0,0,0,2-6.61l-2.89-.79-.32,1.51,2.89.8c.37-2.49.82-4.95,1.36-7.41l-2.95-.39a15.63,15.63,0,0,1-1,4.31l2.95.4a28,28,0,0,1,.79-5.39l-2.95-.4-.72,3,2.9.79,1.46-7.39a1.51,1.51,0,0,0-2.9-.8,16.53,16.53,0,0,1-1.76,3.73l2.74,1.16a11.45,11.45,0,0,1,1.94-4.73l-2.74-1.16-1.81,2.91,2.5,1.46a33.21,33.21,0,0,1,1.17-4.15c.6-1.73-1.81-2.42-2.74-1.16a12.22,12.22,0,0,1-3.16,3.25l2.35,1.82,3-2.71L383,387.36a9.36,9.36,0,0,1-3.3,4.45l2.35,1.82,1.54-1.57-2.2-1.7a4.77,4.77,0,0,1-3.15,3.77l2.26,1.29a16.91,16.91,0,0,1,.86-5.37,1.52,1.52,0,0,0-1.85-1.85l-3.14.18.66,2.5a14.21,14.21,0,0,1,9.69-3.71l-.76-2.8a7.92,7.92,0,0,1-5.36,1.56l.4,2.95A61.44,61.44,0,0,1,394,386.66c1.91-.12,1.95-3,0-3q-7.81.16-15.63-.19l.4,2.95a50.83,50.83,0,0,1,10.5-2.21l-.4-2.95a51.29,51.29,0,0,1-8.36,1.26v3l1.92-.23a1.5,1.5,0,0,0,0-3c-1.87-.22-5.81.86-7.06-1.09-1-1.62-3.64-.12-2.59,1.51,2.34,3.64,6,2.14,9.65,2.58v-3l-1.92.23c-1.87.22-2,3.14,0,3a55.81,55.81,0,0,0,9.16-1.37c1.61-.37,1.3-3.12-.4-2.94a54.52,54.52,0,0,0-11.3,2.32,1.5,1.5,0,0,0,.4,2.94q7.81.36,15.63.19v-3A66.39,66.39,0,0,0,380.15,386a1.51,1.51,0,0,0,.4,2.95,13,13,0,0,0,6.88-2,1.51,1.51,0,0,0-.76-2.79,17.31,17.31,0,0,0-11.81,4.59,1.51,1.51,0,0,0,.66,2.51,11.82,11.82,0,0,0,4.74-.17l-1.84-1.85a19,19,0,0,0-1,6.17,1.52,1.52,0,0,0,2.26,1.3,8.23,8.23,0,0,0,4.52-5.56,1.51,1.51,0,0,0-2.2-1.69,5.94,5.94,0,0,0-2.62,2.65,1.51,1.51,0,0,0,2.36,1.81,12,12,0,0,0,4.07-5.77,1.51,1.51,0,0,0-1.85-1.85,7.61,7.61,0,0,0-4.8,4.09,1.51,1.51,0,0,0,2.36,1.81,19.77,19.77,0,0,0,3.63-3.85l-2.75-1.16a35.5,35.5,0,0,0-1.16,4.15,1.51,1.51,0,0,0,2.51,1.46,8.4,8.4,0,0,0,2.58-4.23c.51-1.7-1.81-2.5-2.74-1.15a12.9,12.9,0,0,0-2.24,5.44c-.29,1.59,1.84,2.72,2.74,1.15a29.87,29.87,0,0,0,2.07-4.44l-2.9-.8-1.46,7.4a1.5,1.5,0,0,0,2.9.79,9.72,9.72,0,0,0,.82-3.83c.15-1.7-2.55-2-2.95-.4a33.11,33.11,0,0,0-.89,6.19c-.09,1.75,2.44,1.95,3,.39a26.36,26.36,0,0,0,1.1-5.1c.21-1.68-2.59-2-2.95-.4-.53,2.45-1,4.91-1.35,7.4-.28,1.86,2.49,2.73,2.89.8l.32-1.52c.4-1.88-2.48-2.68-2.89-.79a43.67,43.67,0,0,1-2,6.61l2.95.4-.34-2.92c-.18-1.52-2.62-2.22-3-.4a5.28,5.28,0,0,1-1.35,3.25l2.75.36-.6-2.17c-.37-1.35-2.62-1.51-2.89,0l-.5,2.79a1.5,1.5,0,0,0,2.89.8l.83-2.69-2.95-.4-.56,2,2.89.79,1.24-7.14c.32-1.89-2.56-2.7-2.9-.8l-.58,3.34a1.5,1.5,0,0,0,2.89.8,45.91,45.91,0,0,0,2.17-8.94c.26-1.85-2.42-2.73-2.89-.8a34.83,34.83,0,0,1-2.4,6.78l2.8.76-.63-5.49a1.5,1.5,0,0,0-2.94-.4,28,28,0,0,0-1,5.2c-.19,1.74,2.47,1.95,2.95.4a77.82,77.82,0,0,0,2.27-9.27l-2.94-.4a20,20,0,0,1-1.27,5.14l3,.4a82.78,82.78,0,0,0,.56-9.31,1.5,1.5,0,0,0-2.94-.4,49.69,49.69,0,0,1-3,6.65l2.75,1.16a74,74,0,0,0,1.68-8.86c.18-1.36-1.71-1.87-2.56-1.06a13.74,13.74,0,0,0-2.37,3l2.8.76-.13-2.29a1.5,1.5,0,0,0-2.94-.4l-1,2.71c-.59,1.63,1.89,2.58,2.74,1.16l1.22-2-2.74-.35.73,2.93a1.51,1.51,0,0,0,2.89,0l1.64-5.44-2.95-.4-.15,6.65h3l-.47-3.93a1.51,1.51,0,0,0-2.95-.4l-3.68,8.9,2.95.39-.24-5c-.08-1.63-2.53-2.11-2.94-.4a13.1,13.1,0,0,0-.56,4.08,1.5,1.5,0,0,0,2.94.4,12.94,12.94,0,0,1,1.4-4.13l-2.79-.75a50.49,50.49,0,0,0,1.48,7.4,1.51,1.51,0,0,0,2.89,0l1.4-5.35-2.95-.4A104,104,0,0,1,375,403.9l2.94-.4-.53-3.13c-.24-1.41-2.68-1.44-2.89,0a27.35,27.35,0,0,0,0,8c.2,1.43,2.09,1.25,2.74.36l1.07-1.08-2.51-.66,1.27,3.51c.45,1.23,2.66,1.61,2.9,0l.23-1.53c.28-1.87-2.53-2.72-2.9-.8a12.23,12.23,0,0,1-1.29,4.15l2.35-.31a25.64,25.64,0,0,1-4.2-5.79l-2.59,1.51a4.75,4.75,0,0,0,4.16,2.63c1.58.21,1.89-2.08.75-2.8a13.93,13.93,0,0,1-6.15-8.24l-2.9.8a34.35,34.35,0,0,0,4.13,8.85c1.09,1.55,3.61.15,2.59-1.52a8.12,8.12,0,0,1-1.58-4.07l-2.5,1.46.21.52,2.95-.4-.32-1.95-2.56,1.07,1.44,2.48,2.89-.79a15,15,0,0,1-1-3.76l-2.89.79c.8,2.65,1.48,5.3,2,8,.4,1.92,3.19,1.07,2.9-.8-.27-1.71-.89-5.46,0-7.31l-1.7.69-.53-.57,2.74-1.16a93.38,93.38,0,0,0-4.31-8.31,1.53,1.53,0,0,0-2.75.36,34,34,0,0,1-2.22,6.07l2.8.76a80.73,80.73,0,0,1,.69-13.09,1.5,1.5,0,0,0-2.89-.79,19.48,19.48,0,0,0-.73,12.16c.44,1.77,2.76,1.18,2.95-.4l.36-3.06h-3l.3,3.94,2.94-.4-.35-.87a1.5,1.5,0,0,0-2.89.8,13.08,13.08,0,0,0,1.36,3.8,1.51,1.51,0,0,0,2.74-.35,27.72,27.72,0,0,0,1.16-7.93h-3a10.62,10.62,0,0,1,.19,3h3c0-1.83,0-3.59.15-5.42l-2.94.4,1,5.17a1.51,1.51,0,0,0,2.89,0,55.74,55.74,0,0,0,.87-6.68c.14-1.93-2.83-1.9-3,0a63.6,63.6,0,0,1-2.17,11.79l3,.4a81.3,81.3,0,0,0-.94-8.8c-.28-1.72-2.9-1.22-3,.4l-.12,4h3a21.38,21.38,0,0,0-.36-4.31c-.3-1.7-2.93-1.25-2.94.4l0,3.1h3a8.38,8.38,0,0,0-.57-2.42,1.5,1.5,0,0,0-2.89.8l.06.24a1.49,1.49,0,0,0,1.45,1.1l.33,0a1.52,1.52,0,0,0,1.44-1.89c0-.9-.12-1-.21-.32l-2.79-.76,0,1.1,2.95-.39-.27-1-2.89.8.91,2.48a1.51,1.51,0,0,0,2.9-.8,24.5,24.5,0,0,1-.81-7.71l-2.94.4.26,3,2.74-.36-.66-.86a1.52,1.52,0,0,0-2.74.36l-.57,2c-.39,1.38,1.51,2.63,2.51,1.46,3.65-4.28,4.76-8.84,5.43-14.33.2-1.63-2-1.82-2.79-.76a36.19,36.19,0,0,0-3.33,5.66c-.82,1.72,1.65,3.23,2.59,1.52l1.25-2.29-2.74-1.16a31,31,0,0,0-1.31,4.41l3,.39-.08-1.73c0-1.39-2.09-2.16-2.79-.75a5.86,5.86,0,0,0-.56,4.62,1.51,1.51,0,0,0,2.21.9,10.14,10.14,0,0,0,3.18-3.4L370.45,387a9,9,0,0,0-.37,2.82,1.51,1.51,0,0,0,2.79.76,12.51,12.51,0,0,0,1.33-4.42c.21-1.66-2.69-2.07-2.94-.4a9.65,9.65,0,0,0,0,4,1.51,1.51,0,0,0,2.74.36l2.92-6-2.74-1.15-1.11,2.83,2.89.8a3.07,3.07,0,0,1,2.87-2.1c1.83-.59,1.05-3.49-.8-2.9Z" transform="translate(-21.65 -342.47)"/><path class="h" d="M373.78,382.36a79.62,79.62,0,0,1,10.5,2,1.5,1.5,0,0,0,.8-2.89l-2.36-.8-.4,3,10.09.62c2,.13,1.86-2.76,0-3l-2.59-.84-.76,2.8,18,.67c1.93.07,1.93-2.93,0-3l-18-.67a1.51,1.51,0,0,0-.76,2.79,11.08,11.08,0,0,0,4.11,1.25v-3l-10.09-.62c-1.76-.11-1.93,2.42-.4,2.94l2.36.8.8-2.89a83.52,83.52,0,0,0-11.3-2.09c-1.92-.22-1.9,2.78,0,3Z" transform="translate(-21.65 -342.47)"/><path class="h" d="M395.35,383.91h-1.16l-1.06,2.56a12.77,12.77,0,0,1,3.27-.12v-3a15.9,15.9,0,0,0-9.28,3l1.82,2.36,1.2-1.16a1.51,1.51,0,0,0-1.82-2.36,10.41,10.41,0,0,0-2.07,1.26c-1.31.89-.54,3.37,1.15,2.74a123,123,0,0,1,12.85-4l-1.69-2.2a17.37,17.37,0,0,0-2.05,4.88l2.2-.9-1.57-1.23-1.06,2.56,1-.11c1.87-.2,2-3,0-3-3.09,0-7.05-.54-10,.29-2.48.7-3.34,2.65-4.49,4.82a30.51,30.51,0,0,0-3.31,9c-.72,4.06-.76,8-3.11,11.6h2.59a9.35,9.35,0,0,1-1.93-4.27,1.5,1.5,0,0,0-2.89.8,15.64,15.64,0,0,0,2.23,5,1.52,1.52,0,0,0,2.59,0c2.94-4.46,2.55-9.53,3.87-14.52.6-2.26,1.92-6.32,3.67-8.09,2.43-2.45,7.68-1.53,10.82-1.58v-3l-1,.11a1.52,1.52,0,0,0-1.06,2.56,7.69,7.69,0,0,0,2.18,1.7,1.51,1.51,0,0,0,2.2-.89,10.24,10.24,0,0,1,1.75-4.17,1.52,1.52,0,0,0-1.7-2.2,120.53,120.53,0,0,0-12.84,4l1.15,2.74a10.78,10.78,0,0,1,2.08-1.26L388,385.36l-1.2,1.17c-1.2,1.15.39,3.34,1.81,2.35a13,13,0,0,1,7.77-2.54,1.5,1.5,0,0,0,0-3,12.77,12.77,0,0,0-3.27.12c-1.13.12-2.19,1.66-1.06,2.57,1.65,1.33,2.89,1.55,4.79.47a1.5,1.5,0,0,0-1.51-2.59Z" transform="translate(-21.65 -342.47)"/></svg>